<?xml version="1.0" encoding="UTF-8"?>
<svg id="Layer_1" xmlns="http://www.w3.org/2000/svg" xmlns:xlink="http://www.w3.org/1999/xlink" version="1.1" viewBox="0 0 283.5 283.5">
  <!-- Generator: Adobe Illustrator 30.4.0, SVG Export Plug-In . SVG Version: 2.1.4 Build 226)  -->
  <defs>
    <style>
      .st0 {
        fill: url(#linear-gradient1);
      }

      .st1 {
        fill: url(#linear-gradient);
      }

      .st2 {
        fill: #383947;
      }
    </style>
    <linearGradient id="linear-gradient" x1="96.8" y1="191.6" x2="181.6" y2="191.6" gradientTransform="translate(0 283.5) scale(1 -1)" gradientUnits="userSpaceOnUse">
      <stop offset="0" stop-color="#f9ead2"/>
      <stop offset="1" stop-color="#7d548e"/>
    </linearGradient>
    <linearGradient id="linear-gradient1" x1="123" y1="240.4" x2="172.7" y2="154.5" gradientTransform="translate(0 283.5) scale(1 -1)" gradientUnits="userSpaceOnUse">
      <stop offset="0" stop-color="#f9ead2"/>
      <stop offset="1" stop-color="#7d548e"/>
    </linearGradient>
  </defs>
  <path class="st1" d="M135.4,45.7c-15-1-28.8,4.7-38.6,14.6,7-2.9,14.7-4.2,22.8-3.7,28.1,1.9,49.2,26.3,47.3,54.4-.7,10.2-4.4,19.5-10.1,27.1,13.8-8,23.5-22.4,24.7-39.5,1.9-27.3-18.7-51-46-52.9h0Z"/>
  <path class="st2" d="M234.2,156.4c2,1.5,4.7,5.2,5.7,7.9,1.9,4.9,2.1,10.2,2,15.6l-.4,20.5c-1.4,18.7,4.4,25.1,6.6,26.8s.8,2.2-.2,2.7-.5.2-.8.3c-16.3,2-19.8-5.6-21-11.7s-1.1-7.1-1.1-7.1c-1.8,3.8-3.6,7.4-6.4,10.6s-8.4,6.4-13.8,6c-5.6-.4-10.3-3.6-13.2-8.2-6.2-9.9-6.2-25.2-3.7-36.4.7-3.2,1.7-6.4,3-9.3,9.3-20.8,32-26.2,43.4-17.7ZM204.5,201.6c.2,3.7,1.2,8.4,4.2,10.2,2.2,1.3,4.6.4,6.4-1.4,1.5-1.6,2.7-3.3,3.7-5.4,1.5-3.4,8.6-25.5,3.8-39.8s-3.1-3.4-5.4-2.8c-10.9,2.8-13.5,26.8-12.7,39.2Z"/>
  <path class="st2" d="M183,170l.2,9.4v22.2c0,7,2.1,18.4,7.5,22.8s1.3,2.5.6,2.8c-1.3.6-9.9,2.9-17,.5s-6.4-5.1-7.8-9.2c-3.5-10.1-2.1-25.5-1.8-36.9s-.7-11-2.3-10.8c-2.6.3-4.6,4.4-5.6,7.7-1.9,6.5-2.5,13.2-2.6,19.9-.4,8.3,0,16.7,1.1,25.2.5,3.9-8.8,4.9-13.4,3.2-2.4-.9-4.3-2.6-5.2-5s-.4-1.4-.4-2.1c0-6.6-.6-47.5-.9-49.4-.4-3.5-1.4-8.2-4.4-9.1-.5-.5-.7-1.3-.3-2s2.6-1.7,2.6-1.7c6.2-2.4,13.6-3.5,17.8,2,1.7,2.9,1.8,6.2,2.1,9.7.9-2.4,1.5-6.5,6.6-11.4,4.8-4.6,11.8-4.8,16.8-1.3s6.3,11.2,6.4,13.5Z"/>
  <path class="st2" d="M138.5,113.4c-.8,7.5-1.6,17.9,1.8,23.9,1.1,1.9,2.9,2.9,5.1,3.7s.8,3.1.1,3.6c-4.9,3.5-20.8,3.6-22-12.3-3.2,6-8.3,11.8-15.1,13.2-4,.8-8.4-.2-11.2-3.2-2.8-3-3.9-7.1-4.1-11.4.9-31.4,27.8-37.7,35.3-38s11.3,8.5,10.1,20.5ZM122.4,102.6c-1.3-1.2-6,0-8.8,4.4s-5.4,12.8-5.4,19.8,1.1,7.9,4.3,7.4c7.6-1.1,15.3-26.4,9.9-31.6Z"/>
  <path class="st2" d="M90.8,69.1c.3,3.7-.5,22.6-1.1,28.4l-3.5,31.4c-.7,6.4-2.8,18.8-.8,23.2,3,6.4,26.7-4.2,26.7-4.2,1-.3,2.5,1.4,1.6,2.9-1.4,2.3-16.7,11-21.4,12.8-4.8,1.8-22.9,5.2-25.6-9.9-1.3-9-1.3-18.1-1-27.1l1.3-33.6c0-2.6-.1-10-.2-13.8s-1.2-2.2-2.5-1.9l-3.1.8c-1.2.3-2.5-.1-3.3-1.1s0,0,0,0c-1.4-1.7-1.4-4.3.3-5.9s.4-.3.6-.5c6.1-5.2,13.3-8.8,21-10.8,0,0,5.7-.8,7.6,0,0,0,3,.8,3.5,9.4Z"/>
  <path class="st2" d="M58.9,128.5c.8,5.9-.4,58.5-.4,58.5-.3,9.1,0,22.8,2.7,31s8.5,6.4,10.7,6.1c4.2-.7,5.8-2.9,7.9-1.6,1.1,1.5,4.3,8-.7,10.2-6.4,4.1-24.5,9.5-34.7-2.4s-6.2-13.2-6.1-29.2c0,0,1.5-63.6,1-67.9s-.1-.2-.3-.2c-1.3.4-2.8,1.3-4.2.3s-.7-2.8-.3-3.9c0,0,3.5-7.3,13.8-11.2s5.2-.5,6.9,1.2c3.3,3.3,3.4,7.5,3.6,9.1Z"/>
  <path class="st2" d="M125.5,163.5c6.5,1.5,4.9,22.1,4.9,22.1l-.3,20.5c0,4.7.5,9.2,1.9,13.6.7,2.3,1.8,4.3,3.8,5.5s0,2.3-.5,2.5c-4.8,2.2-10.5,2.6-16.3-2.9s-3-5.7-3.6-9.2c-2,5-3.2,8.2-6.8,12.2-4.5,5-11.4,6.6-17.6,4s-8.9-10-9.6-14.2c-2.8-16.1-.5-34.6-2.8-43.3s5.1-4,5.1-4l4.4-1c2.1-.5,4.3-.5,6.4.2s2.8,1.9,3.9,3.1c.5,2,.8,3.9.7,6l-.3,13.8c-.2,7.4-1.5,17.7.8,24.2s7.1-.5,7.8-1.9c4.3-8.1,4.8-20.7,5-30.2,0-6.1-.2-11.9-1.1-17.7s0-2.4.9-3.2c2.6-2.2,13.3-.1,13.3-.1Z"/>
  <path class="st0" d="M135.4,45.7c-15-1-28.8,4.7-38.6,14.6,7-2.9,14.7-4.2,22.8-3.7,28.1,1.9,49.2,26.3,47.3,54.4-.7,10.2-4.4,19.5-10.1,27.1,13.8-8,23.5-22.4,24.7-39.5,1.9-27.3-18.7-51-46-52.9h0Z"/>
</svg>