<?xml version="1.0" encoding="UTF-8"?>
<svg id="Layer_1" xmlns="http://www.w3.org/2000/svg" xmlns:xlink="http://www.w3.org/1999/xlink" version="1.1" viewBox="0 0 283.5 283.5">
  <!-- Generator: Adobe Illustrator 30.4.0, SVG Export Plug-In . SVG Version: 2.1.4 Build 226)  -->
  <defs>
    <style>
      .st0 {
        fill: url(#linear-gradient);
      }

      .st1 {
        fill: #383947;
      }
    </style>
    <linearGradient id="linear-gradient" x1="183.6" y1="29.1" x2="233.1" y2="115" gradientUnits="userSpaceOnUse">
      <stop offset="0" stop-color="#f9ead2"/>
      <stop offset="1" stop-color="#7d548e"/>
    </linearGradient>
  </defs>
  <path class="st0" d="M196,31.7c-15-1-28.8,4.7-38.6,14.6,7-2.9,14.7-4.2,22.8-3.7,28.1,1.9,49.2,26.3,47.3,54.4-.7,10.2-4.4,19.5-10.1,27.1,13.8-8,23.5-22.4,24.7-39.5,1.9-27.3-18.7-51-46-52.9Z"/>
  <path class="st1" d="M189.1,156c.2,0,7.8.4,7.2,8.4v25.5c-.2,9.7-.6,28,6.3,33.8l1.4,1.1c.7.5,0,1.7-.5,2-5.1,2.2-14.2,2.5-20-4.6s-4.5-26.7-4.5-26.7h-9.5s1.2,27.8,1.2,27.8c.4,2.9-4.9,3.5-8.5,3.4s-4.2-.7-5.8-1.9-3.2-3.6-3.7-5.9-.7-4.5-.7-6.9c0,0,1.3-30.4,0-40.4s-1.6-6.5-2.6-7.9-.4-2.8.9-3.3c3.9-1.7,10.1-4.1,12-3.3,7.3,3.1,7.1,12.5,7.1,12.5v15.4s9.5,0,9.5,0l-.6-26.1c-.2-2.1,6.9-3.6,10.7-2.7Z"/>
  <path class="st1" d="M143.6,164.2c5.4,4.4,4.3,42.1,4.3,42.1,0,7.3-.5,14.3-2,21.4-1.1,5.1-3,9.8-6.1,14-5.2,7.1-13.6,11-22.3,10l-2.7-.7c-2.3-.9-4.4-2-6.2-3.7-2.5-2.5-3.8-6.5-2.3-9.6s4.5-4,7.7-.5,5.9,4,9.3,2.8,4.5-3.2,5.5-5.6c3.8-9.3,3.2-17.4,3-22.1-2.7,6-6.7,13.3-13.3,13.6-12.4.5-14.3-13-14.4-16.2l-.3-23.7c0-4.1-.3-8.8-2.3-11.9,0,0,0-.2,0-.2,0-.9.7-1.5,1.7-1.7l8.3-1.6c10.6-1.6,9.6,7.4,9.6,7.4v10.9s-.3,12.4-.3,12.4c0,3.8,0,9.7,2.7,9.9s2-.5,2.4-1.4c1.3-1.1,2-2.6,2.5-4.2,4.8-15.4,1.7-37,1.2-39.2v-.8c.7-.8,1.5-1.6,2.5-2,3.8-1.6,8.3-1.8,11.6.8Z"/>
  <path class="st1" d="M82.5,125.4l15.7,87.1c4.5,17,13.7,17.3,11.2,18.6s-10.7,2-18-.2-7.8-2.7-11.5-15.8-11.4-49.8-11.4-49.8l-1.9,14.9-2.7,20.8c-.8,6.1-2.3,11.9-4.4,17.7-2.8,7.6-7.5,14.8-15,18.1s-16.6-.5-17.8-5.4.6-2.4,1.8-3c0,0,4.8-.8,10.7-6.2s10.1-21.2,11.7-30.1l10.1-56.8c.1-.7-.5-1.2-1.1-1,0,0-4,1.6-5.4,1.6s-3.8-1.3-3.1-4.2,2.2-3.6,4-5.1c5.2-4.4,11.4-7.5,18.2-8.3,2-.3,7.5-.2,9.2,7.2Z"/>
  <path class="st1" d="M142,54.3s.5,36.3,14.9,73.5c2.1,5.5,5.1,13.4,10.7,15.3.7.2,1.2,1.5,0,2.3-1.8,1.2-3.9,1.8-6.1,2-3.5.3-17.9.6-21.9-17.1l-9.4-38.1c0-.3-.4-.2-.5,0,0,0-5.5,25.1-7.5,30.6-2.7,7.2-7.2,13.8-14.2,17.2-2,.9-4,1.5-6.1,1.6s-5-.3-7.2-1.5c-1.8-1-3.6-2.7-3.6-5.2s.5-2.3,1.7-2.9l4.1-1.2c2.5-.7,4.4-2.7,6-4.7,5.4-6.5,9.5-20.1,11.1-28.6l8.1-34.5c0-.5-.9-.6-1.3-.5l-4.9,1.5c-.6.2-1.2.2-1.9,0-1.3-.3-2.5-1.5-1.6-3.9s2.1-3.4,3.8-4.8c5-4.2,10.8-6.8,17.3-7.9s8.5,1.4,8.7,6.9Z"/>
  <path class="st1" d="M245.1,158.6c1.8,1.4,4.4,4.9,5.3,7.4,1.8,4.6,2,9.6,1.9,14.6l-.4,19.2c-1.3,17.5,4.1,23.5,6.2,25.2s.8,2-.2,2.5-.5.2-.8.3c-15.3,1.8-18.5-5.2-19.7-11s-1-6.7-1-6.7c-1.7,3.6-3.4,6.9-6,9.9-2.6,3-7.9,6-12.9,5.6-5.2-.4-9.7-3.4-12.4-7.7-5.8-9.3-5.8-23.6-3.5-34.1.7-3,1.6-6,2.8-8.7,8.8-19.5,30-24.5,40.7-16.6ZM217.3,200.9c.2,3.5,1.1,7.9,3.9,9.6,2.1,1.2,4.3.4,6-1.3,1.4-1.5,2.6-3.1,3.5-5.1,1.5-3.2,8.1-23.8,3.6-37.3-.7-2.2-2.9-3.2-5.1-2.6-10.2,2.6-12.7,25.1-11.9,36.7Z"/>
  <path class="st1" d="M205.6,109.6c-.7,7-1.5,16.8,1.7,22.4,1,1.8,2.7,2.8,4.8,3.5s.8,2.9,0,3.4c-4.5,3.2-19.5,3.4-20.6-11.5-3,5.6-7.8,11.1-14.1,12.4-3.7.7-7.9-.2-10.5-3-2.6-2.8-3.7-6.7-3.8-10.7.8-29.4,26-35.3,33.1-35.6s10.6,7.9,9.5,19.2ZM190.5,99.5c-1.2-1.2-5.6,0-8.2,4.1s-5.1,12-5.1,18.6,1,7.4,4,6.9c7.1-1.1,14.4-24.7,9.3-29.6Z"/>
</svg>